<svg width="20" height="20" viewBox="0 0 20 20" fill="none" xmlns="http://www.w3.org/2000/svg">
<path d="M10 19C14.9705 19 19 14.9705 19 10C19 5.02943 14.9705 1 10 1C5.02943 1 1 5.02943 1 10C1 14.9705 5.02943 19 10 19Z" stroke="#606060" stroke-width="2" stroke-linecap="round" stroke-linejoin="round"/>
<path d="M12.0892 5.91362C12.2204 5.78248 12.3761 5.67846 12.5473 5.6075C12.7187 5.53653 12.9024 5.5 13.0878 5.5C13.2733 5.5 13.4569 5.53653 13.6282 5.6075C13.7996 5.67846 13.9553 5.78248 14.0864 5.91362C14.2175 6.04475 14.3216 6.20044 14.3925 6.37177C14.4635 6.5431 14.5 6.72673 14.5 6.91219C14.5 7.09764 14.4635 7.28127 14.3925 7.4526C14.3216 7.62395 14.2175 7.77962 14.0864 7.91075L8.24606 13.7511L5.5 14.5L6.24892 11.754L12.0892 5.91362Z" stroke="#606060" stroke-width="2" stroke-linecap="round" stroke-linejoin="round"/>
</svg>
