<svg width="20" height="16" viewBox="0 0 20 16" fill="none" xmlns="http://www.w3.org/2000/svg">
<path d="M13.8571 15V13.5151C13.8571 11.875 12.4181 10.5454 10.6429 10.5454H4.21429C2.43908 10.5454 1 11.875 1 13.5151V15" stroke="#606060" stroke-width="2" stroke-linecap="round" stroke-linejoin="round"/>
<path fill-rule="evenodd" clip-rule="evenodd" d="M7.42864 7.36364C9.20384 7.36364 10.6429 5.93909 10.6429 4.18182C10.6429 2.42455 9.20384 1 7.42864 1C5.65344 1 4.21436 2.42455 4.21436 4.18182C4.21436 5.93909 5.65344 7.36364 7.42864 7.36364Z" stroke="#606060" stroke-width="2" stroke-linecap="round" stroke-linejoin="round"/>
<path d="M19.0001 15V13.4822C18.999 12.0989 17.9416 10.8912 16.4287 10.5454" stroke="#606060" stroke-width="2" stroke-linecap="round" stroke-linejoin="round"/>
<path d="M13.2144 1C14.7275 1.33489 15.7858 2.51347 15.7858 3.86364C15.7858 5.2138 14.7275 6.39238 13.2144 6.72727" stroke="#606060" stroke-width="2" stroke-linecap="round" stroke-linejoin="round"/>
</svg>
